<svg xmlns="http://www.w3.org/2000/svg" xmlns:xlink="http://www.w3.org/1999/xlink" version="1.1" x="0px" y="0px" viewBox="0 0 512 640" enable-background="new 0 0 512 512" xml:space="preserve"><g><g><g><path d="M249.6,388.05c-20.08,0-39.56-3.94-57.9-11.7c-8.82-3.729-17.32-8.34-25.27-13.72c-7.88-5.319-15.28-11.44-22.01-18.17     c-6.74-6.74-12.85-14.149-18.17-22.03c-5.37-7.949-9.99-16.46-13.71-25.279c-7.76-18.34-11.7-37.83-11.7-57.92     c0-15.51,2.38-30.8,7.06-45.439c4.53-14.17,11.16-27.55,19.71-39.78c0.75-1.07,1.97-1.71,3.28-1.71c0.82,0,1.61,0.25,2.29,0.72     c0.87,0.61,1.46,1.53,1.65,2.58c0.18,1.05-0.05,2.12-0.66,2.99c-16.57,23.72-25.33,51.6-25.33,80.64     c0,37.601,14.65,72.971,41.23,99.57c26.6,26.6,61.94,41.25,99.53,41.25c9.15,0,18.3-0.88,27.21-2.63     c4.109-0.8,8.239-1.812,12.271-2.979c0.369-0.109,0.75-0.16,1.119-0.16c1.771,0,3.351,1.181,3.841,2.881     c0.109,0.369,0.159,0.75,0.159,1.14c-0.011,1.761-1.189,3.33-2.88,3.82c-4.25,1.239-8.62,2.3-12.971,3.149     C268.939,387.12,259.26,388.05,249.6,388.05z M350.13,347.46c-1.1,0-2.12-0.44-2.88-1.22c-0.75-0.771-1.15-1.78-1.13-2.852     c0.02-1.07,0.46-2.07,1.229-2.81c27.761-26.79,43.051-62.79,43.051-101.351c0-37.63-14.649-73.01-41.239-99.62     c-26.602-26.6-61.961-41.25-99.561-41.26c-18.46,0.01-36.4,3.53-53.32,10.46c-3.86,1.59-7.72,3.37-11.45,5.311     c-0.57,0.3-1.21,0.46-1.85,0.46c-1.5,0-2.86-0.83-3.55-2.16c-0.29-0.57-0.45-1.18-0.45-1.82c-0.01-1.51,0.82-2.88,2.16-3.569     c3.93-2.051,8.01-3.94,12.11-5.62c17.89-7.33,36.85-11.051,56.35-11.051c20.08,0,39.57,3.931,57.91,11.69     c8.82,3.74,17.33,8.35,25.28,13.73c7.88,5.319,15.29,11.439,22.02,18.18c6.74,6.729,12.852,14.14,18.17,22.03     c5.381,7.949,10,16.46,13.722,25.279c7.77,18.36,11.699,37.86,11.699,57.96c0,20.551-4.109,40.459-12.229,59.17     c-3.9,8.989-8.72,17.641-14.33,25.699c-5.56,7.99-11.93,15.471-18.939,22.24C352.149,347.061,351.17,347.46,350.13,347.46z"/></g><g><path d="M249.6,309.02c-9.43-0.01-18.57-1.85-27.17-5.488c-8.31-3.521-15.78-8.551-22.19-14.971     c-6.41-6.41-11.44-13.871-14.96-22.181c-3.64-8.601-5.49-17.74-5.49-27.15c0-12.02,3.1-23.87,8.96-34.27     c0.71-1.26,2.04-2.04,3.49-2.04c0.68,0,1.36,0.18,1.96,0.52c1.92,1.08,2.6,3.53,1.52,5.45c-5.19,9.2-7.93,19.69-7.93,30.34     c0,16.49,6.43,32,18.11,43.681c11.68,11.67,27.2,18.1,43.7,18.108c16.509-0.01,32.03-6.438,43.71-18.108     c11.671-11.681,18.09-27.19,18.09-43.681c0-34.09-27.721-61.83-61.791-61.84c-0.01,0-0.01,0-0.01,0c-2.21,0-4-1.79-4-4     c0-2.2,1.79-4,4-4c9.43,0,18.57,1.851,27.18,5.48c8.319,3.52,15.791,8.55,22.189,14.96c6.399,6.399,11.431,13.87,14.95,22.189     c3.641,8.62,5.479,17.771,5.479,27.21c0,9.41-1.841,18.55-5.479,27.15c-3.51,8.311-8.551,15.77-14.95,22.18     c-6.409,6.42-13.88,11.45-22.189,14.971C268.17,307.17,259.02,309.01,249.6,309.02z"/></g><g><path d="M47.62,224.63L47.62,224.63h-7.01c-15.25-0.01-27.66-12.44-27.67-27.7v-23.7c0-1.05,0.43-2.08,1.17-2.83     c0.74-0.739,1.78-1.17,2.83-1.17h54.39c1.06,0,2.09,0.431,2.83,1.17c0.75,0.75,1.17,1.78,1.17,2.83v23.7     C75.32,212.189,62.89,224.62,47.62,224.63z M20.94,177.229v19.7c0,5.24,2.05,10.18,5.78,13.92c3.73,3.73,8.66,5.78,13.89,5.79     h7.01c5.23-0.01,10.18-2.06,13.92-5.8c3.74-3.74,5.8-8.68,5.8-13.91v-19.7H20.94z"/></g><g><path d="M16.94,177.229c-2.21,0-4-1.79-4-4V102.99c0-2.21,1.79-4,4-4c2.2,0,4,1.79,4,4v70.239     C20.94,175.439,19.14,177.229,16.94,177.229z"/></g><g><path d="M35.08,177.229c-2.21,0-4-1.79-4-4V102.99c0-2.21,1.79-4,4-4c2.2,0,4,1.79,4,4v70.239     C39.08,175.439,37.28,177.229,35.08,177.229z"/></g><g><path d="M53.19,177.229c-2.2,0-4-1.79-4-4V102.99c0-2.21,1.8-4,4-4c2.21,0,4,1.79,4,4v70.239     C57.19,175.439,55.4,177.229,53.19,177.229z"/></g><g><path d="M71.34,177.229c-2.21,0-4-1.79-4-4V102.99c0-2.21,1.79-4,4-4c2.2,0,4,1.79,4,4v70.239     C75.34,175.439,73.54,177.229,71.34,177.229z"/></g><g><path d="M44.12,422.6c-2.2,0-4-1.8-4-4V220.64c0-2.21,1.8-4,4-4c2.21,0,4,1.79,4,4V418.6C48.12,420.8,46.33,422.6,44.12,422.6z"/></g><g><path d="M460.93,416c-2.21,0-4-1.8-4-4V214.03c0-2.2,1.79-4,4-4c2.2,0,3.99,1.8,3.99,4V412C464.92,414.2,463.13,416,460.93,416z"/></g><g><path d="M460.93,218.03L460.93,218.03c-5.51,0-10.83-1.591-15.8-4.711c-4.689-2.939-8.85-7.1-12.37-12.35     c-7.06-10.53-10.96-24.439-10.97-39.18c0.01-14.721,3.91-28.62,10.97-39.141c3.521-5.25,7.681-9.409,12.37-12.35     c4.97-3.12,10.29-4.7,15.8-4.71l0,0l0,0l0,0c5.49,0.01,10.801,1.59,15.761,4.72c4.681,2.94,8.829,7.09,12.351,12.34     c7.06,10.521,10.95,24.42,10.96,39.141c-0.01,14.729-3.9,28.649-10.96,39.18c-3.51,5.25-7.67,9.41-12.351,12.35     C471.729,216.439,466.42,218.03,460.93,218.03z M460.93,210.03h0.021c7.949,0,15.56-4.801,21.449-13.521     c6.109-9.08,9.609-21.729,9.601-34.72c0.01-12.971-3.49-25.61-9.601-34.681c-5.891-8.72-13.5-13.52-21.439-13.52h-0.03l0,0l0,0     l0,0h-0.029c-7.971,0-15.601,4.8-21.5,13.52c-6.109,9.07-9.619,21.71-9.609,34.681c-0.01,12.99,3.5,25.64,9.609,34.71     c5.899,8.729,13.529,13.53,21.5,13.53L460.93,210.03L460.93,210.03z"/></g></g></g><text x="0" y="527" fill="#000000" font-size="5px" font-weight="bold" font-family="'Helvetica Neue', Helvetica, Arial-Unicode, Arial, Sans-serif">Created by ibrandify</text><text x="0" y="532" fill="#000000" font-size="5px" font-weight="bold" font-family="'Helvetica Neue', Helvetica, Arial-Unicode, Arial, Sans-serif">from the Noun Project</text></svg>